<?xml version="1.0" encoding="UTF-8"?><svg id="Layer_2" xmlns="http://www.w3.org/2000/svg" viewBox="0 0 1161.1 456.53"><defs><style>.cls-1{fill:#ff671d;}</style></defs><g id="Layer_1-2"><g><path class="cls-1" d="M341.1,122.44c-16.59-28.61-37.84-53.88-62.09-74.04l-.44-.4-.02,.02c-4.83-4-9.77-7.81-14.82-11.38C229.81,12.67,192.7,0,156.4,0,110.29,0,68.52,24.6,38.78,69.28-3.05,132.1-11.97,220.16,16.56,288.4c21.41,51.21,77,84.43,148.69,88.87,5.22,.32,10.48,.48,15.73,.48,33.19,0,66.7-6.39,95.83-18.41,37.05-15.29,65.41-38.69,82-67.68,24.64-43.05,17.85-107.89-17.72-169.23Zm-167.56,9.61c16.31,0,32.55,6.68,44.23,19.78,10.53,11.81,15.83,27.01,14.93,42.8-.88,15.48-7.64,29.71-19.03,40.19l-1.37,1.22c-20.12,17.41-48.83,18.87-70.36,5.28-4.91-3.46-9.62-7.66-14.06-12.65-1.15-1.29-2.22-2.64-3.22-4.04-3.53-5.16-6.14-10.73-7.85-16.51-.1-.36-.21-.71-.3-1.07-.01-.05-.02-.09-.04-.14-5.24-20.41,.74-44.18,17.09-59.28l1.25-1.15c11.16-9.67,24.96-14.43,38.73-14.43Zm-17.14-110.3c31.78,0,64.55,11.29,94.77,32.66,4.64,3.28,9.17,6.78,13.61,10.45l7.28,6.58c55.73,51.82,73.16,102.36,68.8,154.66-2.86,34.34-24.74,61.76-56.1,83-29.86,20.22-75.54,26.01-108.18,22.51-32.05-3.43-65.27-16.35-86.72-45.41-17.74-24.04-23.01-49.86-20.61-77.56,2.39-27.56,13.45-53.33,31.39-71.26,10.06-10.06,27.24-22.69,54.67-25-12.84,2.95-25.13,9.07-35.64,18.44-21.29,18.99-30.15,46.78-26.04,73.07,1.76,12.01,6.22,23.58,13.47,33.59,1.84,2.64,3.84,5.22,6.04,7.68,5.26,5.9,11.21,10.83,17.61,14.81,31.35,21.18,70.41,19.51,108.55-5.78,20.78-13.78,34.83-37.67,38.53-65.56,4.49-33.78-6.35-68.43-29.75-95.06-25.45-28.96-60.67-46.1-96.64-47.02-33.44-.88-64.37,12.31-89.46,38.08-7.68,7.89-14.67,16.43-20.91,25.48,4.51-10.06,9.79-19.7,15.82-28.77,25.58-38.42,60.92-59.58,99.51-59.58Z"/><g><g><path d="M517.63,42.27c-.24,10.41-4.53,20.32-11.96,27.62-7.43,7.3-17.42,11.41-27.83,11.45-22.66,0-39.52-18.23-39.52-40.61,.02-10.77,4.31-21.09,11.93-28.71C457.86,4.41,468.18,.12,478.95,.1c10.6,.34,20.67,4.69,28.19,12.17l-6.36,8.01c-5.94-5.61-13.67-8.93-21.83-9.38-7.91,0-15.5,3.15-21.1,8.74-5.6,5.59-8.75,13.18-8.76,21.09-.38,7.35,2.09,14.57,6.9,20.15,4.81,5.58,11.58,9.09,18.91,9.81,7.33,.72,14.65-1.41,20.45-5.95,5.8-4.54,9.62-11.14,10.68-18.43h-32.87v-9.63h44.49v5.58Z"/><path d="M555.2,36.86h-6.08c-3.22,.03-6.29,1.32-8.56,3.6-2.27,2.28-3.56,5.35-3.58,8.57v31.51h-10.77V26.36h8.85v4.44c1.71-1.55,3.72-2.74,5.9-3.5,2.18-.76,4.49-1.08,6.8-.94h11.61l-4.16,10.49Z"/><path d="M614.34,80.53h-9.38v-6.92c-3.82,3.77-8.69,6.29-13.98,7.23-5.28,.94-10.73,.25-15.61-1.98-5.79-2.62-10.51-7.13-13.38-12.79-2.87-5.66-3.73-12.14-2.43-18.35,1.3-6.22,4.68-11.8,9.59-15.84,4.91-4.03,11.04-6.28,17.39-6.35,6.96,.03,13.62,2.82,18.53,7.76v-6.92h9.38l-.11,54.17Zm-11.16-22.94c.86-3.55,.56-7.29-.87-10.65-1.43-3.36-3.91-6.18-7.07-8.02-3.16-1.84-6.83-2.61-10.46-2.2-3.63,.41-7.04,1.98-9.7,4.49-2.67,2.5-4.45,5.8-5.1,9.39-.64,3.6-.1,7.31,1.53,10.58,1.64,3.27,4.28,5.92,7.55,7.56,3.27,1.64,6.97,2.19,10.58,1.55,3.24-.62,6.24-2.14,8.65-4.39,2.41-2.25,4.14-5.13,5-8.31h-.11Z"/><path d="M635.89,23.6v3.04h17.14v9.41h-17.14v44.49h-10.49V23.88c0-11.89,8.57-18.78,19.34-18.78h13.01l-4.44,10.21h-8.57c-1.13-.06-2.27,.1-3.33,.49-1.07,.39-2.04,.99-2.87,1.76-.83,.78-1.49,1.71-1.95,2.75-.45,1.04-.69,2.16-.7,3.29Z"/><path d="M710.52,80.53h-9.13v-6.92c-3.81,3.77-8.68,6.3-13.96,7.23-5.28,.94-10.72,.24-15.6-1.99-4.18-1.83-7.84-4.64-10.69-8.2-2.84-3.56-4.78-7.76-5.64-12.23-.73-4.02-.57-8.14,.47-12.09,1.04-3.95,2.93-7.62,5.54-10.76,2.61-3.14,5.88-5.66,9.57-7.4,3.69-1.74,7.72-2.64,11.8-2.66,6.95,.04,13.61,2.83,18.5,7.76v-6.92h9.41v54.17h-.28Zm-11.16-22.94c.87-3.55,.56-7.29-.87-10.65-1.43-3.36-3.91-6.18-7.07-8.02-3.16-1.84-6.83-2.61-10.46-2.2-3.63,.41-7.03,1.98-9.7,4.49-2.67,2.5-4.45,5.8-5.1,9.39-.64,3.6-.1,7.31,1.53,10.58,1.64,3.27,4.28,5.92,7.55,7.56,3.27,1.64,6.97,2.19,10.58,1.55,3.26-.57,6.29-2.07,8.71-4.32,2.42-2.25,4.14-5.16,4.94-8.38h-.11Z"/><path d="M768.27,48.74v31.79h-10.89V48.47c-.03-3.22-1.32-6.29-3.6-8.56-2.27-2.27-5.35-3.56-8.57-3.58-1.6,0-3.18,.3-4.66,.91-1.48,.61-2.82,1.5-3.95,2.63-1.13,1.13-2.02,2.47-2.63,3.95-.61,1.48-.92,3.06-.91,4.65v32.07h-10.77V26.36h8.82v4.74c3.93-3.58,9.06-5.57,14.37-5.58,6.09,.08,11.91,2.57,16.17,6.92,4.27,4.35,6.64,10.21,6.6,16.3Z"/><path d="M831.81,80.53h-9.1v-6.92c-3.82,3.77-8.69,6.29-13.97,7.23-5.28,.94-10.73,.25-15.61-1.98-5.79-2.62-10.51-7.13-13.38-12.79-2.87-5.66-3.73-12.14-2.43-18.35,1.3-6.22,4.68-11.8,9.59-15.84,4.9-4.03,11.04-6.28,17.39-6.35,6.96,.03,13.62,2.82,18.53,7.76v-6.92h9.38v54.17h-.39Zm-11.16-22.94c.87-3.55,.56-7.29-.87-10.65-1.43-3.36-3.91-6.18-7.07-8.02-3.16-1.84-6.82-2.61-10.46-2.2-3.63,.41-7.03,1.98-9.7,4.49-2.67,2.5-4.45,5.8-5.1,9.39-.64,3.6-.11,7.31,1.53,10.58,1.64,3.27,4.28,5.92,7.55,7.56,3.27,1.64,6.97,2.19,10.58,1.55,3.26-.57,6.29-2.07,8.71-4.32,2.42-2.25,4.14-5.16,4.94-8.38h-.11Z"/></g><g><path d="M413.58,374.2l93.96-248.75h41.43l93.96,248.75h-40.55l-23.8-62.58h-100.31l-23.8,62.58h-40.9Zm77.75-96.43h74.22l-37.02-104.37-37.2,104.37Z"/><path d="M660.14,374.2V113.82h37.2V374.2h-37.2Z"/><path d="M738.33,374.2V113.82h37.2V374.2h-37.2Z"/><path d="M817.89,335.8c-8.08-13.62-12.11-29.06-12.11-46.31s4.04-32.61,12.11-46.1c8.07-13.49,18.74-23.76,32.01-30.83,13.26-7.07,27.91-10.6,43.94-10.6s30.79,3.53,44.12,10.6c13.33,7.07,24.01,17.34,32.05,30.83,8.04,13.49,12.06,28.85,12.06,46.1s-4.02,32.68-12.06,46.31c-8.04,13.62-18.76,24.02-32.14,31.18-13.39,7.17-28.06,10.75-44.03,10.75s-30.53-3.58-43.85-10.75c-13.32-7.16-24.02-17.56-32.09-31.18Zm25.09-46.31c0,15.49,4.9,28.07,14.7,37.75,9.79,9.68,21.85,14.52,36.16,14.52s26.54-4.84,36.34-14.52c9.8-9.68,14.7-22.26,14.7-37.75s-4.9-27.39-14.7-36.78c-9.8-9.39-21.91-14.08-36.34-14.08s-26.37,4.69-36.16,14.08c-9.8,9.39-14.7,21.65-14.7,36.78Z"/><path d="M987.45,205.67h39.67l46.89,115.47,47.25-115.47h39.84l-104.36,250.86h-38.96l36.49-90.26-66.81-160.6Z"/></g></g></g></g></svg>